<?xml version="1.0" encoding="UTF-8" standalone="no"?>
<svg
   width="58.72601318359375mm"
   height="379.5499877929687mm"
   viewBox="-211.36300659179688 -376.5499877929687 58.72601318359375 379.5499877929687"
   version="1.1"
   id="svg1"
   sodipodi:docname="Braço baixo pi2 svg.svg"
   inkscape:version="1.4.2 (f4327f4, 2025-05-13)"
   xmlns:inkscape="http://www.inkscape.org/namespaces/inkscape"
   xmlns:sodipodi="http://sodipodi.sourceforge.net/DTD/sodipodi-0.dtd"
   xmlns="http://www.w3.org/2000/svg"
   xmlns:svg="http://www.w3.org/2000/svg"
   xmlns:rdf="http://www.w3.org/1999/02/22-rdf-syntax-ns#"
   xmlns:cc="http://creativecommons.org/ns#"
   xmlns:dc="http://purl.org/dc/elements/1.1/">
  <defs
     id="defs1" />
  <sodipodi:namedview
     id="namedview1"
     pagecolor="#505050"
     bordercolor="#ffffff"
     borderopacity="1"
     inkscape:showpageshadow="0"
     inkscape:pageopacity="0"
     inkscape:pagecheckerboard="1"
     inkscape:deskcolor="#505050"
     inkscape:document-units="mm"
     inkscape:zoom="0.58068219"
     inkscape:cx="111.07625"
     inkscape:cy="717.25982"
     inkscape:window-width="1920"
     inkscape:window-height="1051"
     inkscape:window-x="-9"
     inkscape:window-y="-9"
     inkscape:window-maximized="1"
     inkscape:current-layer="svg1" />
  <title
     id="title1">svgOutput</title>
  <desc
     id="desc1">made with tinkercad</desc>
  <path
     d="M -153.63699340820312 -280.59790039062494 L -158.9530487060547 -127.49800109863278 L -162.28643798828125 -31.497999191284173 L -163.4495849609375 1.9999999999999996 L -196.0030059814453 1.9999999999999996 L -200.00840759277344 1.9999999999999996 L -210.36300659179688 -296.46264648437494 L -210.36300659179688 -375.5499877929687 L -196.0030059814453 -375.5499877929687 L -167.9980010986328 -375.5499877929687 L -153.63699340820312 -375.5499877929687 L -153.63699340820312 -280.59790039062494 M -183.8280029296875 -127.61699676513669 L -182 -127.49800109863278 L -180.1719970703125 -127.61699676513669 L -178.37600708007812 -127.97499847412107 L -176.64100646972656 -128.56300354003903 L -174.99899291992188 -129.37300109863278 L -173.4759979248047 -130.39100646972653 L -172.69972229003906 -131.0720062255859 L -172.0989990234375 -131.59899902343747 L -170.89100646972656 -132.97599792480466 L -169.8730010986328 -134.49899291992185 L -169.06300354003906 -136.14100646972653 L -168.47500610351562 -137.8760070800781 L -168.11700439453125 -139.67199707031247 L -167.9980010986328 -141.49999999999997 L -168.11700439453125 -143.32800292968747 L -168.47500610351562 -145.12399291992185 L -169.06300354003906 -146.8589935302734 L -169.3574981689453 -147.45599365234372 L -169.8730010986328 -148.5010070800781 L -170.89100646972656 -150.02400207519528 L -172.0989990234375 -151.40100097656247 L -173.4759979248047 -152.6089935302734 L -174.99899291992188 -153.62699890136716 L -176.64100646972656 -154.4369964599609 L -178.37600708007812 -155.02499389648435 L -180.1719970703125 -155.38299560546872 L -180.2239990234375 -155.38641357421872 L -182 -155.50300598144528 L -183.8280029296875 -155.38299560546872 L -185.62399291992188 -155.02499389648435 L -187.35899353027344 -154.4369964599609 L -189.00100708007812 -153.62699890136716 L -190.5240020751953 -152.6089935302734 L -191.9010009765625 -151.40100097656247 L -193.10899353027344 -150.02400207519528 L -194.1269989013672 -148.5010070800781 L -194.6425018310547 -147.45599365234372 L -194.93699645996094 -146.8589935302734 L -195.52499389648438 -145.12399291992185 L -195.88299560546875 -143.32800292968747 L -196.0030059814453 -141.49999999999997 L -195.88299560546875 -139.67199707031247 L -195.52499389648438 -137.8760070800781 L -194.93699645996094 -136.14100646972653 L -194.1269989013672 -134.49899291992185 L -193.10899353027344 -132.97599792480466 L -191.9010009765625 -131.59899902343747 L -191.30027770996094 -131.0720062255859 L -190.5240020751953 -130.39100646972653 L -189.00100708007812 -129.37300109863278 L -187.35899353027344 -128.56300354003903 L -185.62399291992188 -127.97499847412107 L -183.8280029296875 -127.61699676513669 M -183.8280029296875 -159.61700439453122 L -182 -159.49800109863278 L -180.1719970703125 -159.61700439453122 L -178.37600708007812 -159.9750061035156 L -176.64100646972656 -160.56300354003903 L -174.99899291992188 -161.37300109863278 L -173.4759979248047 -162.39100646972653 L -172.0989990234375 -163.59899902343747 L -171.8875732421875 -163.8399963378906 L -170.89100646972656 -164.97599792480466 L -169.8730010986328 -166.49899291992185 L -169.06300354003906 -168.14100646972653 L -168.47500610351562 -169.8760070800781 L -168.11700439453125 -171.67199707031247 L -167.9980010986328 -173.49999999999997 L -168.11700439453125 -175.32800292968747 L -168.47500610351562 -177.12399291992185 L -169.06300354003906 -178.8589935302734 L -169.73635864257812 -180.22399902343747 L -169.8730010986328 -180.5010070800781 L -170.89100646972656 -182.02400207519528 L -172.0989990234375 -183.40100097656247 L -173.4759979248047 -184.6089935302734 L -174.99899291992188 -185.62699890136716 L -176.64100646972656 -186.4369964599609 L -178.37600708007812 -187.02499389648435 L -180.1719970703125 -187.38299560546872 L -180.2239990234375 -187.38641357421872 L -182 -187.50300598144528 L -183.8280029296875 -187.38299560546872 L -185.62399291992188 -187.02499389648435 L -187.35899353027344 -186.4369964599609 L -189.00100708007812 -185.62699890136716 L -190.5240020751953 -184.6089935302734 L -191.9010009765625 -183.40100097656247 L -193.10899353027344 -182.02400207519528 L -194.1269989013672 -180.5010070800781 L -194.26364135742188 -180.22399902343747 L -194.93699645996094 -178.8589935302734 L -195.52499389648438 -177.12399291992185 L -195.88299560546875 -175.32800292968747 L -196.0030059814453 -173.49999999999997 L -195.88299560546875 -171.67199707031247 L -195.52499389648438 -169.8760070800781 L -194.93699645996094 -168.14100646972653 L -194.1269989013672 -166.49899291992185 L -193.10899353027344 -164.97599792480466 L -192.1124267578125 -163.8399963378906 L -191.9010009765625 -163.59899902343747 L -190.5240020751953 -162.39100646972653 L -189.00100708007812 -161.37300109863278 L -187.35899353027344 -160.56300354003903 L -185.62399291992188 -159.9750061035156 L -183.8280029296875 -159.61700439453122 M -183.8280029296875 -31.617000579833977 L -182 -31.497999191284173 L -180.1719970703125 -31.617000579833977 L -178.37600708007812 -31.97500038146972 L -176.64100646972656 -32.56299972534179 L -176.22543334960938 -32.76800155639648 L -174.99899291992188 -33.373001098632805 L -173.4759979248047 -34.390998840332024 L -172.0989990234375 -35.59899902343749 L -170.89100646972656 -36.976001739501946 L -169.8730010986328 -38.4990005493164 L -169.06300354003906 -40.140998840332024 L -168.47500610351562 -41.87599945068359 L -168.11700439453125 -43.67200088500976 L -167.9980010986328 -45.49999999999999 L -168.11700439453125 -47.32799911499023 L -168.47500610351562 -49.12400054931639 L -168.48448181152344 -49.15200042724608 L -169.06300354003906 -50.859001159667955 L -169.8730010986328 -52.50099945068358 L -170.89100646972656 -54.02399826049803 L -172.0989990234375 -55.401000976562486 L -173.4759979248047 -56.609001159667955 L -174.99899291992188 -57.62699890136717 L -176.64100646972656 -58.43700027465819 L -178.37600708007812 -59.02500152587889 L -180.1719970703125 -59.382999420166 L -180.2239990234375 -59.386413574218736 L -182 -59.50299835205077 L -183.8280029296875 -59.382999420166 L -185.62399291992188 -59.02500152587889 L -187.35899353027344 -58.43700027465819 L -189.00100708007812 -57.62699890136717 L -190.5240020751953 -56.609001159667955 L -191.9010009765625 -55.401000976562486 L -193.10899353027344 -54.02399826049803 L -194.1269989013672 -52.50099945068358 L -194.93699645996094 -50.859001159667955 L -195.51551818847656 -49.15200042724608 L -195.52499389648438 -49.12400054931639 L -195.88299560546875 -47.32799911499023 L -196.0030059814453 -45.49999999999999 L -195.88299560546875 -43.67200088500976 L -195.52499389648438 -41.87599945068359 L -194.93699645996094 -40.140998840332024 L -194.1269989013672 -38.4990005493164 L -193.10899353027344 -36.976001739501946 L -191.9010009765625 -35.59899902343749 L -190.5240020751953 -34.390998840332024 L -189.00100708007812 -33.373001098632805 L -187.77456665039062 -32.76800155639648 L -187.35899353027344 -32.56299972534179 L -185.62399291992188 -31.97500038146972 L -183.8280029296875 -31.617000579833977 M -183.8280029296875 -63.61700057983397 L -182 -63.4980010986328 L -180.1719970703125 -63.61700057983397 L -178.37600708007812 -63.97499847412108 L -176.64100646972656 -64.56300354003905 L -174.99899291992188 -65.3730010986328 L -174.75514221191406 -65.53600311279295 L -173.4759979248047 -66.39099884033202 L -172.0989990234375 -67.59899902343749 L -170.89100646972656 -68.97599792480467 L -169.8730010986328 -70.49900054931639 L -169.06300354003906 -72.14099884033202 L -168.47500610351562 -73.87599945068358 L -168.11700439453125 -75.67199707031249 L -167.9980010986328 -77.49999999999999 L -168.11700439453125 -79.32800292968749 L -168.47500610351562 -81.12400054931639 L -168.74476623535156 -81.9199981689453 L -169.06300354003906 -82.85900115966795 L -169.8730010986328 -84.50099945068358 L -170.89100646972656 -86.0240020751953 L -172.0989990234375 -87.40100097656249 L -173.4759979248047 -88.60900115966795 L -174.99899291992188 -89.62699890136717 L -176.64100646972656 -90.43699645996092 L -178.37600708007812 -91.02500152587889 L -180.1719970703125 -91.38300323486327 L -180.2239990234375 -91.38641357421874 L -182 -91.50299835205077 L -183.8280029296875 -91.38300323486327 L -185.62399291992188 -91.02500152587889 L -187.35899353027344 -90.43699645996092 L -189.00100708007812 -89.62699890136717 L -190.5240020751953 -88.60900115966795 L -191.9010009765625 -87.40100097656249 L -193.10899353027344 -86.0240020751953 L -194.1269989013672 -84.50099945068358 L -194.93699645996094 -82.85900115966795 L -195.25523376464844 -81.9199981689453 L -195.52499389648438 -81.12400054931639 L -195.88299560546875 -79.32800292968749 L -196.0030059814453 -77.49999999999999 L -195.88299560546875 -75.67199707031249 L -195.52499389648438 -73.87599945068358 L -194.93699645996094 -72.14099884033202 L -194.1269989013672 -70.49900054931639 L -193.10899353027344 -68.97599792480467 L -191.9010009765625 -67.59899902343749 L -190.5240020751953 -66.39099884033202 L -189.24485778808594 -65.53600311279295 L -189.00100708007812 -65.3730010986328 L -187.35899353027344 -64.56300354003905 L -185.62399291992188 -63.97499847412108 L -183.8280029296875 -63.61700057983397 M -183.8280029296875 -95.6169967651367 L -182 -95.4980010986328 L -180.1719970703125 -95.6169967651367 L -178.37600708007812 -95.97499847412108 L -176.64100646972656 -96.56300354003903 L -174.99899291992188 -97.37300109863278 L -173.6061553955078 -98.30400085449216 L -173.4759979248047 -98.390998840332 L -172.0989990234375 -99.59899902343747 L -170.89100646972656 -100.97599792480466 L -169.8730010986328 -102.49900054931638 L -169.06300354003906 -104.140998840332 L -168.47500610351562 -105.87599945068357 L -168.11700439453125 -107.67199707031247 L -167.9980010986328 -109.49999999999997 L -168.11700439453125 -111.32800292968747 L -168.47500610351562 -113.12400054931638 L -169.0050506591797 -114.68800354003903 L -169.06300354003906 -114.85900115966794 L -169.8730010986328 -116.50099945068357 L -170.89100646972656 -118.02400207519528 L -172.0989990234375 -119.40100097656247 L -173.4759979248047 -120.60900115966794 L -174.99899291992188 -121.62699890136716 L -176.64100646972656 -122.43699645996091 L -178.37600708007812 -123.02500152587888 L -180.1719970703125 -123.38300323486325 L -180.2239990234375 -123.38641357421872 L -182 -123.50299835205075 L -183.8280029296875 -123.38300323486325 L -185.62399291992188 -123.02500152587888 L -187.35899353027344 -122.43699645996091 L -189.00100708007812 -121.62699890136716 L -190.5240020751953 -120.60900115966794 L -191.9010009765625 -119.40100097656247 L -193.10899353027344 -118.02400207519528 L -194.1269989013672 -116.50099945068357 L -194.93699645996094 -114.85900115966794 L -194.9949493408203 -114.68800354003903 L -195.52499389648438 -113.12400054931638 L -195.88299560546875 -111.32800292968747 L -196.0030059814453 -109.49999999999997 L -195.88299560546875 -107.67199707031247 L -195.52499389648438 -105.87599945068357 L -194.93699645996094 -104.140998840332 L -194.1269989013672 -102.49900054931638 L -193.10899353027344 -100.97599792480466 L -191.9010009765625 -99.59899902343747 L -190.5240020751953 -98.390998840332 L -190.3938446044922 -98.30400085449216 L -189.00100708007812 -97.37300109863278 L -187.35899353027344 -96.56300354003903 L -185.62399291992188 -95.97499847412108 L -183.8280029296875 -95.6169967651367 z"
     fill="none"
     stroke="rgb(255,0,0)"
     stroke-width="0.001mm"
     id="path1"
     style="fill:#000000;fill-opacity:1" />
  <metadata
     id="metadata1">
    <rdf:RDF>
      <cc:Work
         rdf:about="">
        <dc:title>svgOutput</dc:title>
      </cc:Work>
    </rdf:RDF>
  </metadata>
</svg>
