<?xml version="1.0" encoding="UTF-8" standalone="no"?>
<!-- Created with Inkscape (http://www.inkscape.org/) -->

<svg
   width="60cm"
   height="40cm"
   viewBox="0 0 600 400"
   version="1.1"
   id="svg5"
   xml:space="preserve"
   sodipodi:docname="guitarraCorpoFirebird.svg"
   inkscape:version="1.2.2 (b0a8486541, 2022-12-01)"
   xmlns:inkscape="http://www.inkscape.org/namespaces/inkscape"
   xmlns:sodipodi="http://sodipodi.sourceforge.net/DTD/sodipodi-0.dtd"
   xmlns="http://www.w3.org/2000/svg"
   xmlns:svg="http://www.w3.org/2000/svg"><sodipodi:namedview
     id="namedview7"
     pagecolor="#ffffff"
     bordercolor="#000000"
     borderopacity="0.25"
     inkscape:showpageshadow="2"
     inkscape:pageopacity="0.0"
     inkscape:pagecheckerboard="0"
     inkscape:deskcolor="#d1d1d1"
     inkscape:document-units="mm"
     showgrid="false"
     showguides="false"
     inkscape:zoom="0.41386281"
     inkscape:cx="1261.2875"
     inkscape:cy="811.86323"
     inkscape:window-width="1600"
     inkscape:window-height="823"
     inkscape:window-x="0"
     inkscape:window-y="0"
     inkscape:window-maximized="1"
     inkscape:current-layer="layer1"><sodipodi:guide
       position="403.68493,226.86301"
       orientation="0,-1"
       id="guide3242"
       inkscape:locked="false" /><sodipodi:guide
       position="426.73972,178.9452"
       orientation="0,-1"
       id="guide3244"
       inkscape:locked="false" /></sodipodi:namedview><defs
     id="defs2" /><g
     inkscape:label="Camada 1"
     inkscape:groupmode="layer"
     id="layer1"><path
       style="fill:#000000;fill-opacity:0;stroke:#0300b2;stroke-width:1.865;stroke-dasharray:none;stroke-opacity:1"
       d="M 88.459447,57.578963 C 25.981899,96.277957 99.958232,347.30074 148.43979,347.86367 c 69.90122,-14.17299 83.29517,-39.57822 127.60884,-37.69778 126.81256,5.38127 173.02756,68.04356 206.19648,36.62069 40.65692,-38.5167 -31.44988,-58.16161 -37.42465,-94.98619 -4.0782,-25.13536 47.21788,-33.09384 47.21788,-33.09384 l -60.8362,0.1478 0.11163,-49.27212 39.93785,0.68521 c 0,0 -14.61429,-2.20578 -23.48095,-17.68174 0,0 -5.0259,-52.757814 -37.76295,-63.7988 C 368.43315,74.765343 324.5571,115.60338 280.73022,113.54105 214.05421,110.40353 134.78008,44.944104 88.459447,57.578963 Z"
       id="path330"
       sodipodi:nodetypes="ccssscccccssc" /></g></svg>
