<?xml version="1.0" encoding="UTF-8" standalone="no"?>
<!-- Created with Inkscape (http://www.inkscape.org/) -->

<svg
   width="57cm"
   height="37cm"
   viewBox="0 0 570 369.99999"
   version="1.1"
   id="svg5"
   inkscape:version="1.1.2 (0a00cf5339, 2022-02-04)"
   sodipodi:docname="guitarraBracoStratoMeio.svg"
   xmlns:inkscape="http://www.inkscape.org/namespaces/inkscape"
   xmlns:sodipodi="http://sodipodi.sourceforge.net/DTD/sodipodi-0.dtd"
   xmlns="http://www.w3.org/2000/svg"
   xmlns:svg="http://www.w3.org/2000/svg">
  <sodipodi:namedview
     id="namedview7"
     pagecolor="#ffffff"
     bordercolor="#666666"
     borderopacity="1.0"
     inkscape:pageshadow="2"
     inkscape:pageopacity="0.0"
     inkscape:pagecheckerboard="0"
     inkscape:document-units="mm"
     showgrid="false"
     units="cm"
     inkscape:zoom="0.43206369"
     inkscape:cx="869.08483"
     inkscape:cy="680.45523"
     inkscape:window-width="1024"
     inkscape:window-height="699"
     inkscape:window-x="0"
     inkscape:window-y="32"
     inkscape:window-maximized="1"
     inkscape:current-layer="layer1" />
  <defs
     id="defs2" />
  <g
     inkscape:label="Camada 1"
     inkscape:groupmode="layer"
     id="layer1">
    <path
       style="fill:none;stroke:#000000;stroke-width:0.264583px;stroke-linecap:butt;stroke-linejoin:miter;stroke-opacity:1"
       d="m 532.27112,259.21084 -7.54449,13.1137 -299.95581,-142.51007 -7.757,12.45048 L 507.30874,302.6 496.24305,321.83419 400.67379,268.67421 306.3141,215.14267 245.90865,180.98696 219.41829,165.14189 206.79018,158.57431 c 0,0 -7.25692,-5.37636 -11.49759,-6.64668 -2.7639,-0.82794 -5.75784,-0.60549 -8.64119,-0.50125 -4.05073,0.14644 -8.03352,1.08901 -12.05717,1.57897 -4.77267,0.58116 -14.3332,1.61394 -14.3332,1.61394 -17.81364,-13.22575 -36.89937,-24.28243 -54.79668,-31.66992 0,0 -0.68895,-2.25279 -2.12079,-3.68897 -1.68587,-1.69098 -4.486413,-4.89387 -6.874153,-4.87732 -1.96926,0.0136 -0.65738,3.09146 -2.37557,4.05376 -2.422753,1.3569 -8.113357,1.8899 -8.113357,1.8899 l -15.968187,0.12903 -14.372932,-4.15496 c 0,0 -7.181979,-2.42777 -9.247123,-5.32345 -1.908317,-2.67578 -1.867815,-9.68111 -1.867815,-9.68111 0,0 1.412841,-12.648617 2.912454,-18.815389 1.049049,-4.313917 2.082991,-8.744292 4.234166,-12.62795 1.444469,-2.607808 2.970627,-5.664599 5.680038,-6.908067 5.796586,-2.660319 12.780976,-0.193186 19.129047,0.422993 8.931238,0.866922 26.525122,4.591931 26.525122,4.591931 l 35.76529,8.179166 31.83924,6.045101 19.86587,3.132265 c 0,0 14.92103,-0.380361 22.28696,0.606373 3.09243,0.414258 6.27314,0.883402 9.0938,2.217042 1.7982,0.850207 3.82589,1.833562 4.77127,3.583591 1.29665,2.40029 1.71746,5.714763 0.5233,8.167656 -0.64879,1.332668 -3.27635,1.083808 -3.66825,2.513268 -0.58006,2.11585 2.77336,5.96895 2.77336,5.96895 l 21.1626,13.2207 36.80027,18.72851 55.84046,27.61975 78.08077,39.09235 65.18267,29.51778 z"
       id="path6461"
       sodipodi:nodetypes="cccccccccccsssccssscccscssssccccsssssccccccc" />
  </g>
</svg>
