<?xml version="1.0" encoding="UTF-8" standalone="no"?>
<!-- Created with Inkscape (http://www.inkscape.org/) -->

<svg
   width="60cm"
   height="40cm"
   viewBox="0 0 600 400"
   version="1.1"
   id="svg5"
   xml:space="preserve"
   inkscape:version="1.2.2 (b0a8486541, 2022-12-01)"
   sodipodi:docname="guitarraCorpoStrato.svg"
   xmlns:inkscape="http://www.inkscape.org/namespaces/inkscape"
   xmlns:sodipodi="http://sodipodi.sourceforge.net/DTD/sodipodi-0.dtd"
   xmlns="http://www.w3.org/2000/svg"
   xmlns:svg="http://www.w3.org/2000/svg"><sodipodi:namedview
     id="namedview7"
     pagecolor="#ffffff"
     bordercolor="#000000"
     borderopacity="0.25"
     inkscape:showpageshadow="2"
     inkscape:pageopacity="0.0"
     inkscape:pagecheckerboard="0"
     inkscape:deskcolor="#d1d1d1"
     inkscape:document-units="mm"
     showgrid="false"
     showguides="false"
     inkscape:zoom="0.5852904"
     inkscape:cx="1026.8407"
     inkscape:cy="715.88394"
     inkscape:window-width="1600"
     inkscape:window-height="823"
     inkscape:window-x="0"
     inkscape:window-y="0"
     inkscape:window-maximized="1"
     inkscape:current-layer="layer1"><sodipodi:guide
       position="278.19812,187.10224"
       orientation="0,-1"
       id="guide375"
       inkscape:locked="false" /><sodipodi:guide
       position="313.38698,225.39383"
       orientation="0,-1"
       id="guide377"
       inkscape:locked="false" /></sodipodi:namedview><defs
     id="defs2" /><g
     inkscape:label="Camada 1"
     inkscape:groupmode="layer"
     id="layer1"><path
       style="fill:#000000;fill-opacity:0;stroke:#0300b2;stroke-width:1.865"
       d="m 38.675167,198.40286 c -1.427466,-73.67655 5.907717,-92.55134 41.58395,-110.795844 35.676233,-18.244502 91.800173,30.360824 132.654613,35.342544 38.38437,4.68052 75.7163,-30.463206 109.12096,-24.640436 26.83321,4.677296 32.01387,20.684826 32.01387,20.684826 1.35904,14.16733 -44.64729,0.96301 -55.66325,31.81653 -3.15466,8.83559 15.35755,23.58646 15.35755,23.58646 l -49.84001,-0.72925 0.75004,39.18825 12.01528,-0.0304 c 0,0 -10.6965,9.16474 -9.08473,27.44267 2.54924,28.90916 37.00957,18.23427 44.06641,33.1187 0,0 2.53714,10.44467 -28.91451,13.64838 -24.01489,0.0485 -46.67788,-21.95891 -69.9255,-19.11383 -19.442,2.37934 -71.13857,38.83516 -106.15394,38.28706 C 54.619079,305.92 40.049603,269.34236 38.675167,198.40286 Z"
       id="path223"
       sodipodi:nodetypes="szsscsccccsccscs" /></g></svg>
