<?xml version="1.0" encoding="UTF-8" standalone="no"?>
<!-- Created with Inkscape (http://www.inkscape.org/) -->

<svg
   width="57cm"
   height="37cm"
   viewBox="0 0 569.99999 370"
   version="1.1"
   id="svg5"
   inkscape:version="1.1.2 (0a00cf5339, 2022-02-04)"
   sodipodi:docname="guitarraCorpoStratoMeio.svg"
   xmlns:inkscape="http://www.inkscape.org/namespaces/inkscape"
   xmlns:sodipodi="http://sodipodi.sourceforge.net/DTD/sodipodi-0.dtd"
   xmlns="http://www.w3.org/2000/svg"
   xmlns:svg="http://www.w3.org/2000/svg">
  <sodipodi:namedview
     id="namedview7"
     pagecolor="#ffffff"
     bordercolor="#666666"
     borderopacity="1.0"
     inkscape:pageshadow="2"
     inkscape:pageopacity="0.0"
     inkscape:pagecheckerboard="0"
     inkscape:document-units="mm"
     showgrid="false"
     width="57cm"
     inkscape:zoom="0.30551517"
     inkscape:cx="1039.2283"
     inkscape:cy="788.83153"
     inkscape:window-width="1024"
     inkscape:window-height="699"
     inkscape:window-x="0"
     inkscape:window-y="32"
     inkscape:window-maximized="1"
     inkscape:current-layer="layer1"
     units="cm" />
  <defs
     id="defs2" />
  <g
     inkscape:label="Camada 1"
     inkscape:groupmode="layer"
     id="layer1">
    <path
       style="fill:none;stroke:#000000;stroke-width:0.264583px;stroke-linecap:butt;stroke-linejoin:miter;stroke-opacity:1"
       d="m 507.58063,179.53487 c 1.2266,-41.12276 6.65611,-87.398468 -17.0326,-120.212258 -13.03024,-18.04959 -37.69453,-27.19053 -59.81327,-29.70768 -20.71017,-2.35685 -40.85053,8.55439 -60.82221,14.5208 -31.12177,9.29741 -59.35845,28.59099 -91.65949,32.00406 -25.35307,2.67892 -50.80273,-4.17125 -75.77948,-9.28173 -13.01831,-2.66368 -25.31724,-8.47496 -38.44162,-10.55398 -3.60393,-0.57089 -7.32627,-1.04672 -10.93488,-0.50625 -13.70439,2.05256 -29.91544,3.6655 -39.14177,14.00465 -6.82713,7.65058 -8.39717,23.033 -7.012,29.95167 0.60347,3.014198 2.6829,5.409798 5.605,6.364198 5.62424,1.83698 22.99555,2.54858 33.61984,6.57572 6.56812,2.48965 13.07127,6.04208 17.86381,11.17727 3.76414,4.03326 6.92401,9.09212 6.6547,14.60242 -0.22862,4.67762 -6.6547,11.6918 -6.6547,11.6918 v 15.12902 L 442.94399,79.784742 448.02734,256.74483 164.03196,200.22278 v 22.1901 c 0,0 7.33847,-0.69177 10.99272,-1.165 4.5441,-0.58847 9.034,-1.57209 13.58768,-2.08119 4.82196,-0.53909 10.00574,-2.80755 14.51965,-1.02808 4.20863,1.65912 7.75877,5.66477 9.24178,9.93863 1.89898,5.47264 1.00863,12.0564 -1.40767,17.32113 -2.18542,4.76169 -7.22304,8.37861 -11.65055,11.17983 -4.38903,2.77688 -19.06428,6.09021 -28.03678,10.99553 -2.63088,1.43832 -5.0878,3.24819 -7.24683,5.32878 -3.12385,3.01036 -6.95686,6.00595 -8.09265,10.19292 -0.79688,2.93759 0.19754,6.19765 1.28552,9.04031 1.4582,3.80998 4.25285,7.6432 6.80713,10.82408 2.09909,2.61402 3.94538,5.13276 6.95313,6.61355 7.63087,3.75688 16.86403,2.6676 25.36928,2.73828 12.46775,0.1036 25.13655,-0.44299 37.25012,-3.39546 9.75638,-2.37794 18.3029,-8.40544 27.89528,-11.3766 10.50516,-3.25388 21.24871,-7.23329 32.24358,-6.99051 11.29467,0.2494 22.00768,5.21139 32.77349,8.63616 8.06596,2.5659 15.71699,6.33007 23.7799,8.90553 10.50524,3.35559 21.05741,6.92952 31.97228,8.50612 16.9851,2.45342 34.31167,1.89171 51.46553,1.38388 5.37435,-0.1591 10.86926,-0.0239 16.0704,-1.38668 4.88977,-1.28116 10.12123,-2.81248 13.80651,-6.27224 10.42518,-9.78721 25.75399,-27.14644 31.28589,-38.43044 6.82593,-13.92357 8.2856,-29.98061 10.40334,-45.34206 2.14275,-15.5429 1.81215,-31.33155 2.27994,-47.01448 z"
       id="path3402"
       sodipodi:nodetypes="ssssssssssssssccccccsssssssssssssasssssssssss" />
  </g>
</svg>
